<svg version="1.1" xmlns="http://www.w3.org/2000/svg" xmlns:xlink="http://www.w3.org/1999/xlink" width="980" height="524"><defs/><g><g transform="translate(2,-46) scale(1,1)"><rect fill="#dedada" stroke="none" x="536" y="344" width="432" height="216"/></g><g transform="translate(2,-46) scale(1,1)"><path fill="none" stroke="#000000" d="M 536 344 L 968 344 L 968 560 L 536 560 L 536 344 Z Z" stroke-miterlimit="10"/></g><g transform="translate(2,-46) scale(1,1)"><rect fill="#dedada" stroke="none" x="536" y="56" width="432" height="208"/></g><g transform="translate(2,-46) scale(1,1)"><path fill="none" stroke="#000000" d="M 536 56 L 968 56 L 968 264 L 536 264 L 536 56 Z Z" stroke-miterlimit="10"/></g><g transform="translate(2,-46) scale(1,1)"><rect fill="#dedada" stroke="none" x="8" y="176" width="463" height="312"/></g><g transform="translate(2,-46) scale(1,1)"><path fill="none" stroke="#000000" d="M 8 176 L 471 176 L 471 488 L 8 488 L 8 176 Z Z" stroke-miterlimit="10"/></g><g transform="translate(2,-46) scale(1,1)"><rect fill="#C0C0C0" stroke="none" x="143" y="207" width="200" height="160" opacity="0.2"/></g><g transform="translate(2,-46) scale(1,1)"><rect fill="#ffffff" stroke="none" x="136" y="200" width="200" height="160"/></g><g transform="translate(2,-46) scale(1,1)"><path fill="none" stroke="#000000" d="M 136 200 L 336 200 L 336 360 L 136 360 L 136 200 Z Z" stroke-miterlimit="10"/></g><g transform="translate(2,-46) scale(1,1)"><path fill="none" stroke="#000000" d="M 136 224 L 336 224" stroke-miterlimit="10"/></g><g transform="translate(2,-46) scale(1,1)"><path fill="none" stroke="#000000" d="M 136 260 L 336 260" stroke-miterlimit="10"/></g><g transform="translate(2,-46) scale(1,1)"><g><path fill="none" stroke="none"/><text fill="#000000" stroke="none" font-family="Arial" font-size="12px" font-style="italic" font-weight="bold" text-decoration="none" x="222" y="218.5">Duck</text></g></g><g transform="translate(2,-46) scale(1,1)"><g><path fill="none" stroke="none"/><text fill="#000000" stroke="none" font-family="Arial" font-size="12px" font-style="normal" font-weight="normal" text-decoration="none" x="141" y="240.5">+flyBehavior: FlyBehavior</text></g></g><g transform="translate(2,-46) scale(1,1)"><g><path fill="none" stroke="none"/><text fill="#000000" stroke="none" font-family="Arial" font-size="12px" font-style="normal" font-weight="normal" text-decoration="none" x="141" y="254.5">+quackBehavior: QuackBehavior</text></g></g><g transform="translate(2,-46) scale(1,1)"><g><path fill="none" stroke="none"/><text fill="#000000" stroke="none" font-family="Arial" font-size="12px" font-style="italic" font-weight="normal" text-decoration="none" x="141" y="276.5">+display()</text></g></g><g transform="translate(2,-46) scale(1,1)"><g><path fill="none" stroke="none"/><text fill="#000000" stroke="none" font-family="Arial" font-size="12px" font-style="normal" font-weight="normal" text-decoration="none" x="141" y="290.5">+swim()</text></g></g><g transform="translate(2,-46) scale(1,1)"><g><path fill="none" stroke="none"/><text fill="#000000" stroke="none" font-family="Arial" font-size="12px" font-style="normal" font-weight="normal" text-decoration="none" x="141" y="304.5">+setFlyBehavior()</text></g></g><g transform="translate(2,-46) scale(1,1)"><g><path fill="none" stroke="none"/><text fill="#000000" stroke="none" font-family="Arial" font-size="12px" font-style="normal" font-weight="normal" text-decoration="none" x="141" y="318.5">+setQuackBehavior()</text></g></g><g transform="translate(2,-46) scale(1,1)"><g><path fill="none" stroke="none"/><text fill="#000000" stroke="none" font-family="Arial" font-size="12px" font-style="normal" font-weight="normal" text-decoration="none" x="141" y="332.5">+performFly()</text></g></g><g transform="translate(2,-46) scale(1,1)"><g><path fill="none" stroke="none"/><text fill="#000000" stroke="none" font-family="Arial" font-size="12px" font-style="normal" font-weight="normal" text-decoration="none" x="141" y="346.5">+performQuack()</text></g></g><g transform="translate(2,-46) scale(1,1)"><rect fill="#C0C0C0" stroke="none" x="31" y="431" width="86" height="45" opacity="0.2"/></g><g transform="translate(2,-46) scale(1,1)"><rect fill="#ffffff" stroke="none" x="24" y="424" width="86" height="45"/></g><g transform="translate(2,-46) scale(1,1)"><path fill="none" stroke="#000000" d="M 24 424 L 110 424 L 110 469 L 24 469 L 24 424 Z Z" stroke-miterlimit="10"/></g><g transform="translate(2,-46) scale(1,1)"><path fill="none" stroke="#000000" d="M 24 448 L 110 448" stroke-miterlimit="10"/></g><g transform="translate(2,-46) scale(1,1)"><g><path fill="none" stroke="none"/><text fill="#000000" stroke="none" font-family="Arial" font-size="12px" font-style="normal" font-weight="bold" text-decoration="none" x="32.5" y="442.5">MallardDuck</text></g></g><g transform="translate(2,-46) scale(1,1)"><g><path fill="none" stroke="none"/><text fill="#000000" stroke="none" font-family="Arial" font-size="12px" font-style="normal" font-weight="normal" text-decoration="none" x="29" y="464.5">+display()</text></g></g><g transform="translate(2,-46) scale(1,1)"><rect fill="#C0C0C0" stroke="none" x="151" y="431" width="94" height="45" opacity="0.2"/></g><g transform="translate(2,-46) scale(1,1)"><rect fill="#ffffff" stroke="none" x="144" y="424" width="94" height="45"/></g><g transform="translate(2,-46) scale(1,1)"><path fill="none" stroke="#000000" d="M 144 424 L 238 424 L 238 469 L 144 469 L 144 424 Z Z" stroke-miterlimit="10"/></g><g transform="translate(2,-46) scale(1,1)"><path fill="none" stroke="#000000" d="M 144 448 L 238 448" stroke-miterlimit="10"/></g><g transform="translate(2,-46) scale(1,1)"><g><path fill="none" stroke="none"/><text fill="#000000" stroke="none" font-family="Arial" font-size="12px" font-style="normal" font-weight="bold" text-decoration="none" x="151.5" y="442.5">RedheadDuck</text></g></g><g transform="translate(2,-46) scale(1,1)"><g><path fill="none" stroke="none"/><text fill="#000000" stroke="none" font-family="Arial" font-size="12px" font-style="normal" font-weight="normal" text-decoration="none" x="149" y="464.5">+display()</text></g></g><g transform="translate(2,-46) scale(1,1)"><rect fill="#C0C0C0" stroke="none" x="271" y="431" width="85" height="45" opacity="0.2"/></g><g transform="translate(2,-46) scale(1,1)"><rect fill="#ffffff" stroke="none" x="264" y="424" width="85" height="45"/></g><g transform="translate(2,-46) scale(1,1)"><path fill="none" stroke="#000000" d="M 264 424 L 349 424 L 349 469 L 264 469 L 264 424 Z Z" stroke-miterlimit="10"/></g><g transform="translate(2,-46) scale(1,1)"><path fill="none" stroke="#000000" d="M 264 448 L 349 448" stroke-miterlimit="10"/></g><g transform="translate(2,-46) scale(1,1)"><g><path fill="none" stroke="none"/><text fill="#000000" stroke="none" font-family="Arial" font-size="12px" font-style="normal" font-weight="bold" text-decoration="none" x="272" y="442.5">RubberDuck</text></g></g><g transform="translate(2,-46) scale(1,1)"><g><path fill="none" stroke="none"/><text fill="#000000" stroke="none" font-family="Arial" font-size="12px" font-style="normal" font-weight="normal" text-decoration="none" x="269" y="464.5">+display()</text></g></g><g transform="translate(2,-46) scale(1,1)"><rect fill="#C0C0C0" stroke="none" x="383" y="431" width="85" height="45" opacity="0.2"/></g><g transform="translate(2,-46) scale(1,1)"><rect fill="#ffffff" stroke="none" x="376" y="424" width="85" height="45"/></g><g transform="translate(2,-46) scale(1,1)"><path fill="none" stroke="#000000" d="M 376 424 L 461 424 L 461 469 L 376 469 L 376 424 Z Z" stroke-miterlimit="10"/></g><g transform="translate(2,-46) scale(1,1)"><path fill="none" stroke="#000000" d="M 376 448 L 461 448" stroke-miterlimit="10"/></g><g transform="translate(2,-46) scale(1,1)"><g><path fill="none" stroke="none"/><text fill="#000000" stroke="none" font-family="Arial" font-size="12px" font-style="normal" font-weight="bold" text-decoration="none" x="387" y="442.5">DecoyDuck</text></g></g><g transform="translate(2,-46) scale(1,1)"><g><path fill="none" stroke="none"/><text fill="#000000" stroke="none" font-family="Arial" font-size="12px" font-style="normal" font-weight="normal" text-decoration="none" x="381" y="464.5">+display()</text></g></g><g transform="translate(2,-46) scale(1,1)"><rect fill="#C0C0C0" stroke="none" x="679" y="87" width="157" height="64" opacity="0.2"/></g><g transform="translate(2,-46) scale(1,1)"><rect fill="#ffffff" stroke="none" x="672" y="80" width="157" height="64"/></g><g transform="translate(2,-46) scale(1,1)"><path fill="none" stroke="#000000" d="M 672 80 L 829 80 L 829 144 L 672 144 L 672 80 Z Z" stroke-miterlimit="10"/></g><g transform="translate(2,-46) scale(1,1)"><path fill="none" stroke="#000000" d="M 672 116 L 829 116" stroke-miterlimit="10"/></g><g transform="translate(2,-46) scale(1,1)"><g><path fill="none" stroke="none"/><text fill="#000000" stroke="none" font-family="Arial" font-size="12px" font-style="normal" font-weight="normal" text-decoration="none" x="720" y="96.5">«interface»</text></g></g><g transform="translate(2,-46) scale(1,1)"><g><path fill="none" stroke="none"/><text fill="#000000" stroke="none" font-family="Arial" font-size="12px" font-style="normal" font-weight="bold" text-decoration="none" x="718" y="110.5">FlyBehavior</text></g></g><g transform="translate(2,-46) scale(1,1)"><g><path fill="none" stroke="none"/><text fill="#000000" stroke="none" font-family="Arial" font-size="12px" font-style="normal" font-weight="normal" text-decoration="none" x="677" y="132.5">+fly()</text></g></g><g transform="translate(2,-46) scale(1,1)"><rect fill="#C0C0C0" stroke="none" x="687" y="375" width="144" height="60" opacity="0.2"/></g><g transform="translate(2,-46) scale(1,1)"><rect fill="#ffffff" stroke="none" x="680" y="368" width="144" height="60"/></g><g transform="translate(2,-46) scale(1,1)"><path fill="none" stroke="#000000" d="M 680 368 L 824 368 L 824 428 L 680 428 L 680 368 Z Z" stroke-miterlimit="10"/></g><g transform="translate(2,-46) scale(1,1)"><path fill="none" stroke="#000000" d="M 680 404 L 824 404" stroke-miterlimit="10"/></g><g transform="translate(2,-46) scale(1,1)"><g><path fill="none" stroke="none"/><text fill="#000000" stroke="none" font-family="Arial" font-size="12px" font-style="normal" font-weight="normal" text-decoration="none" x="721.5" y="384.5">«interface»</text></g></g><g transform="translate(2,-46) scale(1,1)"><g><path fill="none" stroke="none"/><text fill="#000000" stroke="none" font-family="Arial" font-size="12px" font-style="normal" font-weight="bold" text-decoration="none" x="710" y="398.5">QuackBehavior</text></g></g><g transform="translate(2,-46) scale(1,1)"><g><path fill="none" stroke="none"/><text fill="#000000" stroke="none" font-family="Arial" font-size="12px" font-style="normal" font-weight="normal" text-decoration="none" x="685" y="420.5">+quack()</text></g></g><g transform="translate(2,-46) scale(1,1)"><rect fill="#C0C0C0" stroke="none" x="631" y="215" width="95" height="47" opacity="0.2"/></g><g transform="translate(2,-46) scale(1,1)"><rect fill="#ffffff" stroke="none" x="624" y="208" width="95" height="47"/></g><g transform="translate(2,-46) scale(1,1)"><path fill="none" stroke="#000000" d="M 624 208 L 719 208 L 719 255 L 624 255 L 624 208 Z Z" stroke-miterlimit="10"/></g><g transform="translate(2,-46) scale(1,1)"><path fill="none" stroke="#000000" d="M 624 232 L 719 232" stroke-miterlimit="10"/></g><g transform="translate(2,-46) scale(1,1)"><g><path fill="none" stroke="none"/><text fill="#000000" stroke="none" font-family="Arial" font-size="12px" font-style="normal" font-weight="bold" text-decoration="none" x="634.5" y="226.5">FlyWithWings</text></g></g><g transform="translate(2,-46) scale(1,1)"><g><path fill="none" stroke="none"/><text fill="#000000" stroke="none" font-family="Arial" font-size="12px" font-style="normal" font-weight="normal" text-decoration="none" x="629" y="248.5">+fly()</text></g></g><g transform="translate(2,-46) scale(1,1)"><rect fill="#C0C0C0" stroke="none" x="783" y="215" width="103" height="47" opacity="0.2"/></g><g transform="translate(2,-46) scale(1,1)"><rect fill="#ffffff" stroke="none" x="776" y="208" width="103" height="47"/></g><g transform="translate(2,-46) scale(1,1)"><path fill="none" stroke="#000000" d="M 776 208 L 879 208 L 879 255 L 776 255 L 776 208 Z Z" stroke-miterlimit="10"/></g><g transform="translate(2,-46) scale(1,1)"><path fill="none" stroke="#000000" d="M 776 232 L 879 232" stroke-miterlimit="10"/></g><g transform="translate(2,-46) scale(1,1)"><g><path fill="none" stroke="none"/><text fill="#000000" stroke="none" font-family="Arial" font-size="12px" font-style="normal" font-weight="bold" text-decoration="none" x="799.5" y="226.5">FlyNoWay</text></g></g><g transform="translate(2,-46) scale(1,1)"><g><path fill="none" stroke="none"/><text fill="#000000" stroke="none" font-family="Arial" font-size="12px" font-style="normal" font-weight="normal" text-decoration="none" x="781" y="248.5">+fly()</text></g></g><g transform="translate(2,-46) scale(1,1)"><path fill="none" stroke="#000000" d="M 687 207 L 728 145" stroke-miterlimit="10" stroke-dasharray="3"/></g><g transform="translate(2,-46) scale(1,1)"><path fill="#FFFFFF" stroke="none" d="M 723.8111435932199 166.59753416488505 L 728 145 L 709.7662683644506 157.3097940942474"/></g><g transform="translate(2,-46) scale(1,1)"><path fill="none" stroke="#000000" d="M 723.8111435932199 166.59753416488505 L 728 145 L 709.7662683644506 157.3097940942474 L 723.8111435932199 166.59753416488505" stroke-miterlimit="10"/></g><g transform="translate(2,-46) scale(1,1)"><path fill="none" stroke="#000000" d="M 811 207 L 771 145" stroke-miterlimit="10" stroke-dasharray="3"/></g><g transform="translate(2,-46) scale(1,1)"><path fill="#FFFFFF" stroke="none" d="M 789.0934055412083 157.51513787064982 L 771 145 L 774.9444308971256 166.6435086087677"/></g><g transform="translate(2,-46) scale(1,1)"><path fill="none" stroke="#000000" d="M 789.0934055412083 157.51513787064982 L 771 145 L 774.9444308971256 166.6435086087677 L 789.0934055412083 157.51513787064982" stroke-miterlimit="10"/></g><g transform="translate(2,-46) scale(1,1)"><rect fill="#C0C0C0" stroke="none" x="559" y="511" width="112" height="47" opacity="0.2"/></g><g transform="translate(2,-46) scale(1,1)"><rect fill="#ffffff" stroke="none" x="552" y="504" width="112" height="47"/></g><g transform="translate(2,-46) scale(1,1)"><path fill="none" stroke="#000000" d="M 552 504 L 664 504 L 664 551 L 552 551 L 552 504 Z Z" stroke-miterlimit="10"/></g><g transform="translate(2,-46) scale(1,1)"><path fill="none" stroke="#000000" d="M 552 528 L 664 528" stroke-miterlimit="10"/></g><g transform="translate(2,-46) scale(1,1)"><g><path fill="none" stroke="none"/><text fill="#000000" stroke="none" font-family="Arial" font-size="12px" font-style="normal" font-weight="bold" text-decoration="none" x="590.5" y="522.5">Quack</text></g></g><g transform="translate(2,-46) scale(1,1)"><g><path fill="none" stroke="none"/><text fill="#000000" stroke="none" font-family="Arial" font-size="12px" font-style="normal" font-weight="normal" text-decoration="none" x="557" y="544.5">+quack()</text></g></g><g transform="translate(2,-46) scale(1,1)"><rect fill="#C0C0C0" stroke="none" x="703" y="511" width="112" height="47" opacity="0.2"/></g><g transform="translate(2,-46) scale(1,1)"><rect fill="#ffffff" stroke="none" x="696" y="504" width="112" height="47"/></g><g transform="translate(2,-46) scale(1,1)"><path fill="none" stroke="#000000" d="M 696 504 L 808 504 L 808 551 L 696 551 L 696 504 Z Z" stroke-miterlimit="10"/></g><g transform="translate(2,-46) scale(1,1)"><path fill="none" stroke="#000000" d="M 696 528 L 808 528" stroke-miterlimit="10"/></g><g transform="translate(2,-46) scale(1,1)"><g><path fill="none" stroke="none"/><text fill="#000000" stroke="none" font-family="Arial" font-size="12px" font-style="normal" font-weight="bold" text-decoration="none" x="731" y="522.5">Squeak</text></g></g><g transform="translate(2,-46) scale(1,1)"><g><path fill="none" stroke="none"/><text fill="#000000" stroke="none" font-family="Arial" font-size="12px" font-style="normal" font-weight="normal" text-decoration="none" x="701" y="544.5">+quack()</text></g></g><g transform="translate(2,-46) scale(1,1)"><rect fill="#C0C0C0" stroke="none" x="847" y="511" width="112" height="47" opacity="0.2"/></g><g transform="translate(2,-46) scale(1,1)"><rect fill="#ffffff" stroke="none" x="840" y="504" width="112" height="47"/></g><g transform="translate(2,-46) scale(1,1)"><path fill="none" stroke="#000000" d="M 840 504 L 952 504 L 952 551 L 840 551 L 840 504 Z Z" stroke-miterlimit="10"/></g><g transform="translate(2,-46) scale(1,1)"><path fill="none" stroke="#000000" d="M 840 528 L 952 528" stroke-miterlimit="10"/></g><g transform="translate(2,-46) scale(1,1)"><g><path fill="none" stroke="none"/><text fill="#000000" stroke="none" font-family="Arial" font-size="12px" font-style="normal" font-weight="bold" text-decoration="none" x="865" y="522.5">MuteQuack</text></g></g><g transform="translate(2,-46) scale(1,1)"><g><path fill="none" stroke="none"/><text fill="#000000" stroke="none" font-family="Arial" font-size="12px" font-style="normal" font-weight="normal" text-decoration="none" x="845" y="544.5">+quack()</text></g></g><g transform="translate(2,-46) scale(1,1)"><path fill="none" stroke="#000000" d="M 635 503 L 717 429" stroke-miterlimit="10" stroke-dasharray="3"/></g><g transform="translate(2,-46) scale(1,1)"><path fill="#FFFFFF" stroke="none" d="M 707.5510553513283 448.86749720086397 L 717 429 L 696.2701451679322 436.3670291598035"/></g><g transform="translate(2,-46) scale(1,1)"><path fill="none" stroke="#000000" d="M 707.5510553513283 448.86749720086397 L 717 429 L 696.2701451679322 436.3670291598035 L 707.5510553513283 448.86749720086397" stroke-miterlimit="10"/></g><g transform="translate(2,-46) scale(1,1)"><path fill="none" stroke="#000000" d="M 752 503 L 752 429" stroke-miterlimit="10" stroke-dasharray="3"/></g><g transform="translate(2,-46) scale(1,1)"><path fill="#FFFFFF" stroke="none" d="M 760.419035512032 449.3253497152483 L 752 429 L 743.580964487968 449.3253497152483"/></g><g transform="translate(2,-46) scale(1,1)"><path fill="none" stroke="#000000" d="M 760.419035512032 449.3253497152483 L 752 429 L 743.580964487968 449.3253497152483 L 760.419035512032 449.3253497152483" stroke-miterlimit="10"/></g><g transform="translate(2,-46) scale(1,1)"><path fill="none" stroke="#000000" d="M 869 503 L 787 429" stroke-miterlimit="10" stroke-dasharray="3"/></g><g transform="translate(2,-46) scale(1,1)"><path fill="#FFFFFF" stroke="none" d="M 807.7298548320678 436.3670291598035 L 787 429 L 796.4489446486718 448.86749720086397"/></g><g transform="translate(2,-46) scale(1,1)"><path fill="none" stroke="#000000" d="M 807.7298548320678 436.3670291598035 L 787 429 L 796.4489446486718 448.86749720086397 L 807.7298548320678 436.3670291598035" stroke-miterlimit="10"/></g><g transform="translate(2,-46) scale(1,1)"><path fill="none" stroke="#000000" d="M 90 423 L 154 361" stroke-miterlimit="10"/></g><g transform="translate(2,-46) scale(1,1)"><path fill="#FFFFFF" stroke="none" d="M 145.25944092340177 381.1891710337125 L 154 361 L 133.54359166110262 369.0953911500489"/></g><g transform="translate(2,-46) scale(1,1)"><path fill="none" stroke="#000000" d="M 145.25944092340177 381.1891710337125 L 154 361 L 133.54359166110262 369.0953911500489 L 145.25944092340177 381.1891710337125" stroke-miterlimit="10"/></g><g transform="translate(2,-46) scale(1,1)"><path fill="none" stroke="#000000" d="M 197 423 L 214 361" stroke-miterlimit="10"/></g><g transform="translate(2,-46) scale(1,1)"><path fill="#FFFFFF" stroke="none" d="M 216.7446510084165 382.82812156008845 L 214 361 L 200.50594856433898 378.3755741157446"/></g><g transform="translate(2,-46) scale(1,1)"><path fill="none" stroke="#000000" d="M 216.7446510084165 382.82812156008845 L 214 361 L 200.50594856433898 378.3755741157446 L 216.7446510084165 382.82812156008845" stroke-miterlimit="10"/></g><g transform="translate(2,-46) scale(1,1)"><path fill="none" stroke="#000000" d="M 296 423 L 270 361" stroke-miterlimit="10"/></g><g transform="translate(2,-46) scale(1,1)"><path fill="#FFFFFF" stroke="none" d="M 285.62434218862137 376.4880576952976 L 270 361 L 270.0963676893998 382.9997889369066"/></g><g transform="translate(2,-46) scale(1,1)"><path fill="none" stroke="#000000" d="M 285.62434218862137 376.4880576952976 L 270 361 L 270.0963676893998 382.9997889369066 L 285.62434218862137 376.4880576952976" stroke-miterlimit="10"/></g><g transform="translate(2,-46) scale(1,1)"><path fill="none" stroke="#000000" d="M 393 423 L 325 361" stroke-miterlimit="10"/></g><g transform="translate(2,-46) scale(1,1)"><path fill="#FFFFFF" stroke="none" d="M 345.69189360588916 368.47298728772927 L 325 361 L 334.34717829744056 380.915578271189"/></g><g transform="translate(2,-46) scale(1,1)"><path fill="none" stroke="#000000" d="M 345.69189360588916 368.47298728772927 L 325 361 L 334.34717829744056 380.915578271189 L 345.69189360588916 368.47298728772927" stroke-miterlimit="10"/></g><g transform="translate(2,-46) scale(1,1)"><path fill="none" stroke="#000000" d="M 337 247 L 671 138" stroke-miterlimit="10"/></g><g transform="translate(2,-46) scale(1,1)"><path fill="none" stroke="#000000" d="M 662.6447623145817 145.15471894767126 L 671 138 L 660.0328044888331 137.15110505959757" stroke-miterlimit="10"/></g><g transform="translate(2,-46) scale(1,1)"><path fill="none" stroke="#000000" d="M 337 303 L 679 381" stroke-miterlimit="10"/></g><g transform="translate(2,-46) scale(1,1)"><path fill="none" stroke="#000000" d="M 668.1557224589445 382.8443547957377 L 679 381 L 670.0277820306707 374.63609359663076" stroke-miterlimit="10"/></g><g transform="translate(2,-46) scale(1,1)"><g><path fill="none" stroke="none"/><text fill="#000000" stroke="none" font-family="Arial" font-size="12px" font-style="normal" font-weight="normal" text-decoration="none" x="13" y="193">Client</text></g></g><g transform="translate(2,-46) scale(1,1)"><g><path fill="none" stroke="none"/><text fill="#000000" stroke="none" font-family="Arial" font-size="12px" font-style="normal" font-weight="normal" text-decoration="none" x="853" y="73">Family of algorithms</text></g></g><g transform="translate(2,-46) scale(1,1)"><g><path fill="none" stroke="none"/><text fill="#000000" stroke="none" font-family="Arial" font-size="12px" font-style="normal" font-weight="normal" text-decoration="none" x="853" y="361">Family of algorithms</text></g></g></g></svg>